<?xml version="1.0" encoding="utf-8"?>
<!-- Generator: Adobe Illustrator 21.1.0, SVG Export Plug-In . SVG Version: 6.00 Build 0)  -->
<svg version="1.1" id="Layer_1" xmlns="http://www.w3.org/2000/svg" xmlns:xlink="http://www.w3.org/1999/xlink" x="0px" y="0px"
	 viewBox="0 0 60 60" style="enable-background:new 0 0 60 60;" xml:space="preserve">
<style type="text/css">
	.st0{fill:#279DD4;}
	.st1{fill:#FFFFFF;}
</style>
<rect x="0" y="0" class="st0" width="60" height="60"/>
<g>
	<path class="st1" d="M38.1,52.1c-0.4-2.6-0.6-3.8-0.6-3.8c0-1.7-1.6-3.1-3-3.1h0h-1.2h-5.6h-1.2c0,0,0,0,0,0c-1.4,0-3,1.4-3,3.1
		c0,0-0.1,1.1-0.6,3.8c-0.4,2.7,1,2.9,1,2.9h2.3c0-0.1,0-0.1-0.1-0.2l-0.9-5c-0.1-0.4,0.2-0.7,0.6-0.7h9.2c0.4,0,0.7,0.3,0.6,0.7
		l-0.9,5c0,0.1,0,0.1-0.1,0.2h2.3C37.1,55,38.5,54.7,38.1,52.1z"/>
	<circle class="st1" cx="30.5" cy="52.3" r="0.8"/>
</g>
<path class="st1" d="M31,35.3h-1.3c0-2.4,0.1-4.1,0.3-5.3c0.3-1.2,1-2.8,2.1-4.8c1.1-2.1,1.9-3.7,2.2-5c0.4-1.2,0.5-2.8,0.5-4.6
	c0-2.8-0.6-4.9-1.7-6.3c-1.1-1.3-2.4-2-3.9-2c-1.2,0-2.1,0.3-2.9,0.9c-0.6,0.5-0.9,1-0.9,1.5c0,0.3,0.2,0.9,0.6,1.6
	c0.9,1.6,1.4,3,1.4,4.2c0,1-0.4,1.9-1.1,2.6c-0.7,0.7-1.6,1.1-2.7,1.1c-1.2,0-2.2-0.4-3-1.3c-0.8-0.8-1.2-2-1.2-3.3
	c0-2.5,1.1-4.7,3.3-6.6C24.9,6,27.9,5,31.8,5c4.1,0,7.3,1,9.5,3c2.2,2,3.2,4.4,3.2,7.2c0,2-0.6,3.9-1.7,5.6
	c-1.1,1.7-3.3,3.6-6.4,5.7c-2.1,1.4-3.5,2.7-4.2,3.8C31.5,31.3,31.1,33,31,35.3z M30.6,37.6c0.9,0,1.6,0.3,2.2,0.9
	c0.6,0.6,0.9,1.3,0.9,2.2s-0.3,1.6-0.9,2.2c-0.6,0.6-1.3,0.9-2.2,0.9c-0.9,0-1.6-0.3-2.2-0.9s-0.9-1.4-0.9-2.2s0.3-1.6,0.9-2.2
	C29,37.9,29.7,37.6,30.6,37.6z"/>
</svg>
