<?xml version="1.0" encoding="utf-8"?>
<!-- Generator: Adobe Illustrator 20.1.0, SVG Export Plug-In . SVG Version: 6.00 Build 0)  -->
<svg version="1.1" id="Layer_1" xmlns="http://www.w3.org/2000/svg" xmlns:xlink="http://www.w3.org/1999/xlink" x="0px" y="0px"
	 viewBox="0 0 60 60" style="enable-background:new 0 0 60 60;" xml:space="preserve">
<style type="text/css">
	.st0{fill:#269CD3;}
	.st1{fill:none;stroke:#FFFFFF;stroke-width:2;stroke-miterlimit:10;}
	.st2{fill:none;stroke:#F2F4FA;stroke-width:2;stroke-miterlimit:10;}
	.st3{fill:#FFFFFF;}
</style>
<g>
	<rect class="st0" width="60" height="60"/>
	<g>
		<circle class="st1" cx="28.5" cy="18.9" r="9.3"/>
		<g>
			<path class="st1" d="M30,28.5c-10,0-18.2,8.7-19.3,19.8h38.5C48.2,37.1,40,28.5,30,28.5z"/>
			<path class="st1" d="M10.7,48.3"/>
			<path class="st1" d="M49.2,48.3"/>
			<path class="st1" d="M49.2,48.3H10.7"/>
		</g>
		<line class="st1" x1="22.1" y1="39.1" x2="20.6" y2="48.4"/>
	</g>
	<line class="st2" x1="39.8" y1="47.4" x2="38.2" y2="38.1"/>
	<g>
		<path class="st3" d="M52.5,43.2c0,4.8-3.9,8.6-8.6,8.6c-4.7,0-8.5-4-8.5-8.7c0-4.8,3.9-8.6,8.6-8.6C48.7,34.5,52.5,38.4,52.5,43.2
			"/>
		<path class="st0" d="M44,36.7c-3.5,0-6.4,2.8-6.4,6.4c0,3.5,2.8,6.4,6.3,6.5c3.5,0,6.4-2.8,6.4-6.4C50.3,39.7,47.5,36.8,44,36.7"
			/>
		<g>
			<polygon class="st3" points="42.7,44.1 47.2,39.6 48.6,41 42.7,46.9 39.1,43.2 40.5,41.8 			"/>
		</g>
	</g>
</g>
</svg>
