<?xml version="1.0" encoding="utf-8"?>
<!-- Generator: Adobe Illustrator 20.1.0, SVG Export Plug-In . SVG Version: 6.00 Build 0)  -->
<svg version="1.1" id="Layer_1" xmlns="http://www.w3.org/2000/svg" xmlns:xlink="http://www.w3.org/1999/xlink" x="0px" y="0px"
	 viewBox="0 0 60 60" style="enable-background:new 0 0 60 60;" xml:space="preserve">
<style type="text/css">
	.st0{fill:#269CD3;}
	.st1{fill:none;stroke:#FFFFFF;stroke-width:2;stroke-miterlimit:10;}
	.st2{fill:#FFFFFF;}
</style>
<g>
	<rect class="st0" width="60" height="60"/>
	<g>
		<path class="st1" d="M48.5,17.6v30.1c0,1.7-1.2,3-2.6,3h-26c-1.4,0-2.6-1.3-2.6-3V11.3c0-1.7,1.2-3,2.6-3h20"/>
		<path class="st2" d="M40.2,17.7c1.3,1.3,9.1,0,9.1,0L39.8,7.3C39.8,7.3,38.9,16.4,40.2,17.7z"/>
	</g>
	<g>
		<path class="st2" d="M29.9,17c0,1.7-1.4,3.1-3.1,3.1c-1.7,0-3.1-1.4-3.1-3.1c0-1.7,1.4-3.1,3.1-3.1C28.5,13.9,29.9,15.3,29.9,17"
			/>
		<path class="st2" d="M31.5,25.2v-3c0-0.9-0.7-1.6-1.6-1.6h-2.1l-1.1,1.2l-1.1-1.2h-2.1c-0.9,0-1.6,0.7-1.6,1.6v3
			c1.4,0.8,3,1.3,4.7,1.3C28.5,26.6,30.1,26.1,31.5,25.2"/>
	</g>
	<path class="st2" d="M22.5,39.2h20.1c0.6,0,1-0.5,1-1s-0.5-1-1-1H22.5c-0.6,0-1,0.5-1,1S22,39.2,22.5,39.2"/>
	<path class="st2" d="M22.5,33.7h20.1c0.6,0,1-0.5,1-1c0-0.6-0.5-1-1-1H22.5c-0.6,0-1,0.5-1,1C21.5,33.2,22,33.7,22.5,33.7"/>
	<path class="st2" d="M22.5,44.7h20.1c0.6,0,1-0.5,1-1c0-0.6-0.5-1-1-1H22.5c-0.6,0-1,0.5-1,1C21.5,44.2,22,44.7,22.5,44.7"/>
	<g>
		<path class="st2" d="M27.8,38c0,4.8-3.9,8.7-8.7,8.7c-4.8,0-8.7-3.9-8.7-8.7c0-4.8,3.9-8.7,8.7-8.7C23.9,29.3,27.8,33.2,27.8,38"
			/>
		<path class="st0" d="M19.1,31.6c-3.5,0-6.4,2.9-6.4,6.4c0,3.5,2.9,6.4,6.4,6.4s6.4-2.9,6.4-6.4C25.6,34.4,22.7,31.6,19.1,31.6"/>
		<g>
			<polygon class="st2" points="17.9,38.9 22.4,34.4 23.9,35.8 17.9,41.8 14.2,38.1 15.6,36.7 			"/>
		</g>
	</g>
</g>
</svg>
