<?xml version="1.0" encoding="utf-8"?>
<!-- Generator: Adobe Illustrator 20.1.0, SVG Export Plug-In . SVG Version: 6.00 Build 0)  -->
<svg version="1.1" id="Layer_2" xmlns="http://www.w3.org/2000/svg" xmlns:xlink="http://www.w3.org/1999/xlink" x="0px" y="0px"
	 viewBox="0 0 282 100" style="enable-background:new 0 0 282 100;" xml:space="preserve">
<g id="logo" fill="#ffffff">
	<path id="path3065" d="M72,89c-29.9,2.8-61-1.6-65.3-24.9c-2.2-11.5,3-23.7,10-31.3v-4.1C4.2,39.7-2.6,53.6,1.3,70
		c5,21,31.7,33,72.4,29c16.1-1.6,37.2-6.8,51.9-14.8V72.8C112.3,80.7,90.3,87.3,72,89z M150.6,28.5C143.5-6.1,76.4-8.3,33.1,18.1V21
		C76.3-1.2,137.6-1.1,143.2,30.7c1.9,10.5-4.1,21.5-14.6,27.8v8.3C141.3,62.1,154.4,47,150.6,28.5"/>
	<path id="path3067" d="M123.2,23.5h-7.8v34.8c0,4.1,2,7.6,7.8,8.2V23.5"/>
	<path id="path3069" d="M30,36.2h-7.8V59c0,4.1,2,7.6,7.8,8.2V36.2"/>
	<path id="path3071" d="M22.2,31.9H30v-7.4h-7.8V31.9z"/>
	<path id="path3073" d="M76.9,66.8c-6.3,0-9-4.4-9-8.8V27.8h7.8v8.4h5.8v6.3h-5.8v15.1c0,1.8,0.9,2.8,2.7,2.8h3.2v6.5L76.9,66.8"/>
	<path id="path3075" d="M91.2,53.9c0,4,2.5,6.9,6.9,6.9c3.4,0,5.1-1,7.1-2.9l4.8,4.6c-3.1,3-6.3,4.9-12,4.9
		c-7.4,0-14.6-4.1-14.6-15.9c0-10.1,6.2-15.8,14.4-15.8c8.3,0,13,6.7,13,15.4v2.8L91.2,53.9 M97.5,42.1c-2.6,0-4.7,1.4-5.5,3.2
		c-0.5,1.1-0.7,2-0.8,3.3h12C103,45.3,101.5,42.1,97.5,42.1"/>
	<path id="path3077" d="M51.1,42.5c2.3,0,3.2,1.1,3.2,2.9v21.4h7.8V45.4c0-4.4-2.3-9.2-9.1-9.2H37v30.7h7.8V42.5H51.1"/>
	<path id="path3079" d="M131.7,29.7c-1.7,0-3.1-1.4-3.1-3.1s1.4-3.1,3.1-3.1c1.7,0,3.1,1.4,3.1,3.1
		C134.8,28.3,133.4,29.7,131.7,29.7z M131.7,24c-1.4,0-2.6,1.2-2.6,2.6s1.2,2.6,2.6,2.6c1.4,0,2.6-1.2,2.6-2.6
		C134.2,25.1,133.1,24,131.7,24z M133,28.4h-0.6c-0.1,0-0.1,0-0.1-0.1l-0.8-1.3l-0.1-0.1c0,0-0.1,0-0.2,0c-0.1,0-0.1,0-0.1,0v1.3
		c0,0.1-0.1,0.1-0.1,0.1h-0.5c-0.1,0-0.1-0.1-0.1-0.1v-3.4c0-0.2,0.1-0.3,0.2-0.3c0.2,0,0.7,0,0.9,0c1,0,1.5,0.3,1.5,1.2v0.1
		c0,0.6-0.3,0.8-0.7,1l0.8,1.4L133,28.4C133.2,28.4,133.1,28.4,133,28.4L133,28.4z M132.3,25.8c0-0.4-0.2-0.5-0.7-0.5
		c-0.1,0-0.2,0-0.3,0s-0.1,0-0.1,0v1.1c0.1,0,0.4,0,0.5,0C132.1,26.4,132.3,26.2,132.3,25.8L132.3,25.8"/>

	<path d="M176,35.8v10.7h12.5v3.6H176v13.5h-4.3V32.2h19.1v3.6H176z"/>
	<path d="M200.7,63.6h-4.3V32.2h10.8c3.5,0,6.1,0.8,8,2.5c1.9,1.7,2.8,4.1,2.8,7.3c0,3.1-0.9,5.6-2.8,7.3c-1.9,1.7-4.5,2.7-8,2.7
		h-6.5L200.7,63.6L200.7,63.6z M200.7,48.5h6.4c2.1,0,3.9-0.5,4.9-1.5c1.1-0.9,1.7-2.7,1.7-4.8c0-2.3-0.5-3.9-1.7-4.8
		c-1.2-0.9-2.8-1.5-5.1-1.5h-6.4v12.5H200.7z"/>
	<path d="M239.3,60.4c2,0,3.6-0.3,4.9-0.7V51H237v-3.5h11.2v14.5c-0.5,0.3-1.2,0.7-1.9,0.8c-0.8,0.3-1.6,0.4-2.4,0.7
		c-0.8,0.1-1.7,0.3-2.7,0.4s-1.9,0.1-2.7,0.1c-2.4,0-4.5-0.4-6.4-1.1c-1.9-0.7-3.6-1.7-4.9-3.1c-1.3-1.3-2.4-3.1-3.2-5.2
		c-0.8-2-1.1-4.4-1.1-7.1c0-2.5,0.4-4.9,1.1-6.9c0.8-2,1.7-3.7,3.2-5.1c1.3-1.3,2.9-2.4,4.9-3.2c1.9-0.7,4-1.1,6.4-1.1
		c1.9,0,3.6,0.3,5.2,0.7c1.6,0.5,2.9,1.2,4.1,2l-1.9,3.2c-2-1.5-4.5-2.1-7.2-2.1c-3.7,0-6.5,1.1-8.4,3.2c-2,2.1-2.9,5.2-2.9,9.3
		C227.4,56.2,231.4,60.4,239.3,60.4z"/>
	<path d="M272.7,54.9h-13.3l-3.2,8.7H252l12-31.4h4.4l12,31.4h-4.5L272.7,54.9z M260.5,51.4h10.8l-5.5-14.7L260.5,51.4z"/>
</g>
</svg>
